<svg id="Layer_1" data-name="Layer 1" xmlns="http://www.w3.org/2000/svg" viewBox="0 0 500 500"><defs><style>.cls-1{fill:#e8e8e8;}.cls-2{fill:#ef3c3c;}.cls-3{fill:#ce3838;}.cls-4{fill:#c6c6c6;}.cls-5{fill:#444;}.cls-6{fill:#2d2d2d;}.cls-7{fill:none;stroke:#000;stroke-linecap:round;stroke-linejoin:round;stroke-width:15px;}</style></defs><title>wine</title><path class="cls-1" d="M151.13,334.53s52.88,0,71-45.37c20.54-51.38-13.83-112.61-13.83-112.61H94S59.6,237.78,80.13,289.16C98.25,334.53,151.13,334.53,151.13,334.53Z"/><path class="cls-1" d="M151.13,465.56c38.63,0,60.42,26.86,60.42,26.86H90.71S112.5,465.56,151.13,465.56Z"/><rect class="cls-2" x="324.52" y="7.58" width="57.23" height="30.65"/><rect class="cls-3" x="345.75" y="7.58" width="36" height="30.65"/><rect class="cls-1" x="319.26" y="38.24" width="67.75" height="30.89"/><rect class="cls-4" x="351.01" y="38.24" width="36" height="30.89"/><path class="cls-5" d="M381.75,148.19V69.13H324.52v79.06a30.87,30.87,0,0,1-10.79,23.44h0a96.79,96.79,0,0,0-33.88,73.56V472.4a20,20,0,0,0,20,20H406.39a20,20,0,0,0,20-20V245.19a96.78,96.78,0,0,0-33.87-73.56h0A30.84,30.84,0,0,1,381.75,148.19Z"/><path class="cls-6" d="M392.54,171.63h0a30.84,30.84,0,0,1-10.79-23.44V69.13h-36v79.06a30.84,30.84,0,0,0,10.79,23.44h0a96.78,96.78,0,0,1,33.87,73.56V472.4a20,20,0,0,1-20,20h36a20,20,0,0,0,20-20V245.19A96.78,96.78,0,0,0,392.54,171.63Z"/><path class="cls-4" d="M208.3,176.55h-36s34.37,61.23,13.83,112.61c-11.26,28.18-35.92,38.85-53,42.9a87.15,87.15,0,0,0,18,2.47s52.88,0,71-45.37C242.67,237.78,208.3,176.55,208.3,176.55Z"/><path class="cls-7" d="M381.75,148.19V69.13H324.52v79.06a30.87,30.87,0,0,1-10.79,23.44h0a96.79,96.79,0,0,0-33.88,73.56V472.4a20,20,0,0,0,20,20H406.39a20,20,0,0,0,20-20V245.19a96.78,96.78,0,0,0-33.87-73.56h0A30.84,30.84,0,0,1,381.75,148.19Z"/><rect class="cls-7" x="324.52" y="7.58" width="57.23" height="30.65"/><rect class="cls-7" x="319.26" y="38.24" width="67.75" height="30.89"/><rect class="cls-2" x="335.38" y="275.72" width="91.03" height="114.7"/><rect class="cls-3" x="390.41" y="275.72" width="36" height="114.7"/><rect class="cls-7" x="335.38" y="275.72" width="91.03" height="114.7"/><path class="cls-7" d="M151.13,334.53s52.88,0,71-45.37c20.54-51.38-13.83-112.61-13.83-112.61H94S59.6,237.78,80.13,289.16C98.25,334.53,151.13,334.53,151.13,334.53Z"/><line class="cls-7" x1="151.13" y1="334.53" x2="151.13" y2="465.56"/><path class="cls-7" d="M151.13,465.56c38.63,0,60.42,26.86,60.42,26.86H90.71S112.5,465.56,151.13,465.56Z"/><path class="cls-2" d="M80.13,289.16c18.12,45.37,71,45.37,71,45.37s52.88,0,71-45.37c5.12-12.81,6.83-26.23,6.51-39.16h-155C73.31,262.93,75,276.35,80.13,289.16Z"/><path class="cls-3" d="M228.64,250h-36c.32,12.93-1.39,26.35-6.51,39.16-11.26,28.18-35.92,38.85-53,42.9a87.15,87.15,0,0,0,18,2.47s52.88,0,71-45.37C227.25,276.35,229,262.93,228.64,250Z"/><path class="cls-7" d="M80.13,289.16c18.12,45.37,71,45.37,71,45.37s52.88,0,71-45.37c5.12-12.81,6.83-26.23,6.51-39.16h-155C73.31,262.93,75,276.35,80.13,289.16Z"/></svg>